Coordinates
version=1
nRows=5
nColumns=40
inDegrees=yes

Units are S.I. units (second, meters, Newtons, ...)
If the header above contains a line with 'inDegrees', this indicates whether rotational values are in degrees (yes) or radians (no).

endheader
time	pelvis_tilt	pelvis_list	pelvis_rotation	pelvis_tx	pelvis_ty	pelvis_tz	hip_flexion_r	hip_adduction_r	hip_rotation_r	knee_angle_r	knee_angle_r_beta	ankle_angle_r	subtalar_angle_r	mtp_angle_r	hip_flexion_l	hip_adduction_l	hip_rotation_l	knee_angle_l	knee_angle_l_beta	ankle_angle_l	subtalar_angle_l	mtp_angle_l	lumbar_extension	lumbar_bending	lumbar_rotation	arm_flex_r	arm_add_r	arm_rot_r	elbow_flex_r	pro_sup_r	wrist_flex_r	wrist_dev_r	arm_flex_l	arm_add_l	arm_rot_l	elbow_flex_l	pro_sup_l	wrist_flex_l	wrist_dev_l
      1.06000000	     16.10004342	      4.86006905	      3.86333513	      1.50206435	      0.95566425	     -0.32418004	     12.49487753	     -6.05098769	     -7.93063541	     15.88038740	      0.27716505	    -11.49980429	      0.00000000	      0.00000000	    -29.62281832	      6.80130093	      2.88634359	     10.24204634	      0.17875743	     -2.34871461	      0.00000000	      0.00000000	    -30.43624373	     -3.44671256	    -10.27808069	     -1.59835573	    -15.29072986	      7.61423357	     45.02528636	     76.62139084	      0.00000000	      0.00000000	     12.03366634	    -28.05942426	     26.40408419	     57.61460007	     77.67889600	      0.00000000	      0.00000000
      1.06400000	     15.99251662	      4.85453603	      3.88248511	      1.50729184	      0.95434521	     -0.32394220	     12.75714093	     -5.88503007	     -7.70373587	     14.90740690	      0.26018333	    -11.89387719	      0.00000000	      0.00000000	    -29.63676262	      6.72009893	      2.68811873	     10.71217794	      0.18696278	     -2.14801200	      0.00000000	      0.00000000	    -30.36457239	     -3.43417493	    -10.29226821	     -1.49826292	    -15.24302453	      7.61273663	     44.90952491	     76.52316621	      0.00000000	      0.00000000	     12.27283290	    -28.09445016	     26.52521152	     57.58819349	     77.69958096	      0.00000000	      0.00000000
      1.06800000	     15.79838233	      4.95869595	      3.91274814	      1.51262644	      0.95278225	     -0.32387902	     13.21913347	     -5.88844497	     -7.61687445	     14.25266197	      0.24875588	    -11.97520842	      0.00000000	      0.00000000	    -29.64328044	      6.76503270	      2.68563462	     11.03746035	      0.19264002	     -1.88832446	      0.00000000	      0.00000000	    -30.20287756	     -3.51350008	    -10.37806447	     -1.43250926	    -15.15187209	      7.62867784	     44.89281832	     76.39856808	      0.00000000	      0.00000000	     12.42197633	    -28.15272109	     26.56039833	     57.65223769	     77.69532560	      0.00000000	      0.00000000
      1.07200000	     15.60358002	      4.99655875	      3.94181251	      1.51792343	      0.95120463	     -0.32382804	     13.83566271	     -5.85901602	     -7.63716356	     13.99826071	      0.24431574	    -11.93714362	      0.00000000	      0.00000000	    -29.66657135	      6.75513991	      2.67363953	     11.28509621	      0.19696209	     -1.91291464	      0.00000000	      0.00000000	    -30.04537361	     -3.53578514	    -10.42833678	     -1.34058707	    -15.13427434	      7.62570385	     44.90552655	     76.38772527	      0.00000000	      0.00000000	     12.56868137	    -28.17650594	     26.53687218	     57.69966994	     77.69515350	      0.00000000	      0.00000000
      1.07600000	     15.47897304	      5.17106666	      4.01226919	      1.52335440	      0.94983948	     -0.32362499	     13.99773423	     -5.89259546	     -7.32655698	     13.00464203	      0.22697382	    -12.22982186	      0.00000000	      0.00000000	    -29.65265680	      6.83309493	      2.73862653	     11.86683901	      0.20711541	     -1.43628947	      0.00000000	      0.00000000	    -29.94049224	     -3.68950239	    -10.60744963	     -1.25026108	    -14.99258294	      7.70583199	     44.71432849	     76.19829213	      0.00000000	      0.00000000	     12.71710243	    -28.26836520	     26.61473491	     57.67697397	     77.71749113	      0.00000000	      0.00000000
